<svg width="114" height="29" viewBox="0 0 114 29" fill="none" xmlns="http://www.w3.org/2000/svg">
<path d="M17.5625 12.9219H7.3125V16.9531C7.58333 16.8281 8.00521 16.6042 8.57812 16.2812C9.16146 15.9583 9.73958 15.7188 10.3125 15.5625C10.8958 15.4062 11.5938 15.3281 12.4062 15.3281C13.4375 15.3281 14.4375 15.6458 15.4062 16.2812C16.375 16.9062 16.8594 17.7708 16.8594 18.875C16.8594 19.6042 16.6146 20.2448 16.125 20.7969C15.6354 21.349 15.0469 21.7604 14.3594 22.0312C13.6823 22.3021 13.0938 22.4375 12.5938 22.4375L16.2188 26.8438L14.2344 28.2812L8.65625 21.6562L9.6875 19.5156C10.2396 19.6719 10.8177 19.75 11.4219 19.75C12.349 19.75 13.099 19.5208 13.6719 19.0625C14.2552 18.6042 14.5469 17.9688 14.5469 17.1562C14.5469 16.3229 13.9531 15.9062 12.7656 15.9062C11.9844 15.9062 11.1667 16.2552 10.3125 16.9531C9.45833 17.6406 8.73958 18.4531 8.15625 19.3906C7.57292 20.3281 7.28125 21.099 7.28125 21.7031V28.25L4.59375 27.0469V12.9219H2.60938V11.0469H4.5C4.5 9.39062 4.33854 7.9375 4.01562 6.6875C3.70312 5.4375 3.32812 4.40625 2.89062 3.59375C2.44271 2.78125 1.94271 2.01562 1.39062 1.29688C0.838542 0.578125 0.541667 0.177083 0.5 0.09375H3.67188C3.81771 0.229167 4.0625 0.520833 4.40625 0.96875C4.75 1.40625 5.13542 2.05729 5.5625 2.92188C6 3.78646 6.39062 4.93229 6.73438 6.35938C7.07812 7.77604 7.25 9.33854 7.25 11.0469H17.5625V12.9219ZM34.5312 12.9219H21.9219V17.625C22.151 17.375 22.4115 17.099 22.7031 16.7969C22.9948 16.4948 23.3281 16.2083 23.7031 15.9375C24.0781 15.6667 24.5365 15.4323 25.0781 15.2344C25.6198 15.0365 26.2292 14.9375 26.9062 14.9375C28.1875 14.9375 29.3177 15.2917 30.2969 16C31.2865 16.6979 32.0573 17.5938 32.6094 18.6875C33.1615 19.7812 33.4375 20.8594 33.4375 21.9219C33.4375 23.026 33.1719 24.0469 32.6406 24.9844C32.1094 25.9219 31.5781 26.651 31.0469 27.1719C30.5156 27.6927 30.1198 28.0521 29.8594 28.25L27.2969 26.7188C27.4427 26.5104 27.7552 26.1615 28.2344 25.6719C28.7135 25.1823 29.1354 24.6979 29.5 24.2188C29.8646 23.7396 30.1875 23.1406 30.4688 22.4219C30.75 21.7031 30.8958 20.8958 30.9062 20C30.9062 18.9062 30.6458 18.0208 30.125 17.3438C29.6042 16.6562 28.8854 16.3125 27.9688 16.3125C27.1146 16.3438 26.2031 16.651 25.2344 17.2344C24.276 17.8177 23.4688 18.5469 22.8125 19.4219C22.1562 20.2969 21.8281 21.1406 21.8281 21.9531V28.1562L18.9062 26.5938V12.9219H17.1875V11.0469H18.9062C18.9062 9.35938 18.6667 7.84896 18.1875 6.51562C17.7083 5.17188 17.151 4.06771 16.5156 3.20312C15.8802 2.33854 15.3333 1.69792 14.875 1.28125C14.4062 0.864583 14.0677 0.588542 13.8594 0.453125L17.0156 0.421875C17.776 0.838542 18.5365 1.60417 19.2969 2.71875C20.0677 3.82292 20.6979 5.13021 21.1875 6.64062C21.6771 8.14062 21.9219 9.60938 21.9219 11.0469H34.5312V12.9219ZM49.5781 12.9219H39.1719V15.4219C39.224 15.4219 39.2656 15.4427 39.2969 15.4844C39.3281 15.526 39.3646 15.5469 39.4062 15.5469C39.3854 15.5469 39.599 15.4844 40.0469 15.3594C40.5052 15.2344 41.026 15.125 41.6094 15.0312C42.1927 14.9271 42.7552 14.875 43.2969 14.875C44.5469 14.875 45.5312 15.0469 46.25 15.3906C46.9688 15.7344 47.4844 16.2188 47.7969 16.8438C48.1198 17.4688 48.3125 18.1719 48.375 18.9531C48.4479 19.724 48.4844 20.7865 48.4844 22.1406V28.3125C47.9115 28.0833 47.3958 27.8594 46.9375 27.6406C46.4792 27.4115 46.1615 27.2448 45.9844 27.1406C45.9844 26.7969 45.9219 26.5833 45.7969 26.5C45.4531 26.6979 45.0677 26.9167 44.6406 27.1562C44.2135 27.3854 43.6562 27.5885 42.9688 27.7656C42.2812 27.9427 41.4635 28.0312 40.5156 28.0312C39.6094 28.0312 38.724 27.8646 37.8594 27.5312C36.9948 27.1979 36.2917 26.724 35.75 26.1094C35.2188 25.4844 34.9531 24.7812 34.9531 24C34.9531 23.2708 35.2917 22.5104 35.9688 21.7188C36.6458 20.9167 37.5521 20.2552 38.6875 19.7344C39.8229 19.2031 41.0625 18.9375 42.4062 18.9375C43.1354 18.9375 43.8281 19.0469 44.4844 19.2656C45.1406 19.474 45.6406 19.7083 45.9844 19.9688V18.5312C45.5781 17.9896 45.1719 17.6146 44.7656 17.4062C44.3594 17.1979 43.7344 17.0938 42.8906 17.0938C41.7969 17.1354 40.9323 17.2292 40.2969 17.375C39.6719 17.5104 38.9948 17.7292 38.2656 18.0312C37.5469 18.3229 36.9427 18.5521 36.4531 18.7188V17.5625C36.526 17.5 36.6302 17.4115 36.7656 17.2969C36.901 17.1823 36.9896 17.099 37.0312 17.0469C37.0833 16.9948 37.1146 16.9635 37.125 16.9531V12.9219H33.9219V11.0469H49.5781V12.9219ZM45.9844 22.8125C45.9844 22.3333 45.4479 21.9323 44.375 21.6094C43.3021 21.2865 42.5417 21.125 42.0938 21.125C40.9583 21.125 39.9219 21.3646 38.9844 21.8438C38.0573 22.3229 37.3281 22.8802 36.7969 23.5156C36.2656 24.1406 36 24.6562 36 25.0625C36.1458 25.5 36.4688 25.8021 36.9688 25.9688C37.4792 26.125 38.0208 26.2031 38.5938 26.2031C39.6562 26.2031 40.6406 26.0625 41.5469 25.7812C42.4635 25.5 43.2552 25.1562 43.9219 24.75C44.5885 24.3333 45.099 23.9375 45.4531 23.5625C45.8073 23.1875 45.9844 22.9375 45.9844 22.8125ZM67.6406 12.9219H53.9219V14.75H65.9844L57.5625 24.5781C57.6562 24.6719 57.9896 24.8646 58.5625 25.1562C59.1354 25.4479 59.7969 25.7135 60.5469 25.9531C61.2969 26.1823 62.0625 26.2969 62.8438 26.2969C63.6771 26.2969 64.3438 26.1667 64.8438 25.9062C65.3438 25.6458 65.7135 25.0833 65.9531 24.2188C66.0573 24.5521 66.1094 24.8542 66.1094 25.125C66.1094 25.6667 65.974 26.1979 65.7031 26.7188C65.4323 27.2396 65.0156 27.6667 64.4531 28C63.8906 28.3438 63.2292 28.5156 62.4688 28.5156C61.4271 28.5156 60.5 28.3906 59.6875 28.1406C58.875 27.8906 58.1562 27.599 57.5312 27.2656C56.9167 26.9219 56.4271 26.6458 56.0625 26.4375C55.875 26.7083 55.4844 27.0469 54.8906 27.4531C54.2969 27.8594 53.4948 28.0625 52.4844 28.0625C51.9427 28.0417 51.3906 27.875 50.8281 27.5625C50.2656 27.2396 49.9844 26.8073 49.9844 26.2656C49.9844 25.4531 50.4323 24.7917 51.3281 24.2812C52.224 23.7708 53.1927 23.5156 54.2344 23.5156C54.5365 23.5156 54.8385 23.5469 55.1406 23.6094L61.0156 16.5156C60.099 16.5156 58.6406 16.6146 56.6406 16.8125C54.651 17.0104 52.6667 17.4323 50.6875 18.0781L51.9688 15.0156V12.9219H49.1875V11.0156H67.6406V12.9219ZM82.5156 12.9219H72.1094V15.4219C72.1615 15.4219 72.2031 15.4427 72.2344 15.4844C72.2656 15.526 72.3021 15.5469 72.3438 15.5469C72.3229 15.5469 72.5365 15.4844 72.9844 15.3594C73.4427 15.2344 73.9635 15.125 74.5469 15.0312C75.1302 14.9271 75.6927 14.875 76.2344 14.875C77.4844 14.875 78.4688 15.0469 79.1875 15.3906C79.9062 15.7344 80.4219 16.2188 80.7344 16.8438C81.0573 17.4688 81.25 18.1719 81.3125 18.9531C81.3854 19.724 81.4219 20.7865 81.4219 22.1406V28.3125C80.849 28.0833 80.3333 27.8594 79.875 27.6406C79.4167 27.4115 79.099 27.2448 78.9219 27.1406C78.9219 26.7969 78.8594 26.5833 78.7344 26.5C78.3906 26.6979 78.0052 26.9167 77.5781 27.1562C77.151 27.3854 76.5938 27.5885 75.9062 27.7656C75.2188 27.9427 74.401 28.0312 73.4531 28.0312C72.5469 28.0312 71.6615 27.8646 70.7969 27.5312C69.9323 27.1979 69.2292 26.724 68.6875 26.1094C68.1562 25.4844 67.8906 24.7812 67.8906 24C67.8906 23.2708 68.2292 22.5104 68.9062 21.7188C69.5833 20.9167 70.4896 20.2552 71.625 19.7344C72.7604 19.2031 74 18.9375 75.3438 18.9375C76.0729 18.9375 76.7656 19.0469 77.4219 19.2656C78.0781 19.474 78.5781 19.7083 78.9219 19.9688V18.5312C78.5156 17.9896 78.1094 17.6146 77.7031 17.4062C77.2969 17.1979 76.6719 17.0938 75.8281 17.0938C74.7344 17.1354 73.8698 17.2292 73.2344 17.375C72.6094 17.5104 71.9323 17.7292 71.2031 18.0312C70.4844 18.3229 69.8802 18.5521 69.3906 18.7188V17.5625C69.4635 17.5 69.5677 17.4115 69.7031 17.2969C69.8385 17.1823 69.9271 17.099 69.9688 17.0469C70.0208 16.9948 70.0521 16.9635 70.0625 16.9531V12.9219H66.8594V11.0469H82.5156V12.9219ZM78.9219 22.8125C78.9219 22.3333 78.3854 21.9323 77.3125 21.6094C76.2396 21.2865 75.4792 21.125 75.0312 21.125C73.8958 21.125 72.8594 21.3646 71.9219 21.8438C70.9948 22.3229 70.2656 22.8802 69.7344 23.5156C69.2031 24.1406 68.9375 24.6562 68.9375 25.0625C69.0833 25.5 69.4062 25.8021 69.9062 25.9688C70.4167 26.125 70.9583 26.2031 71.5312 26.2031C72.5938 26.2031 73.5781 26.0625 74.4844 25.7812C75.401 25.5 76.1927 25.1562 76.8594 24.75C77.526 24.3333 78.0365 23.9375 78.3906 23.5625C78.7448 23.1875 78.9219 22.9375 78.9219 22.8125ZM98.9844 12.9219H82.1875V11.0469H98.9844V12.9219ZM95.625 19.7812C95.625 17.2812 94.4427 16.0312 92.0781 16.0312C91.3906 16.0312 90.6823 16.2344 89.9531 16.6406C89.2344 17.0469 88.5885 17.6094 88.0156 18.3281C87.4531 19.0469 86.9948 19.901 86.6406 20.8906C86.2969 21.8802 86.125 22.9062 86.125 23.9688V28.5156L83.5625 27.1719V15.4219H86.25V17.2812C86.4688 17.1146 86.8281 16.8333 87.3281 16.4375C87.8385 16.0417 88.4531 15.6771 89.1719 15.3438C89.901 15.0104 90.6875 14.8438 91.5312 14.8438C92.3542 14.8438 93.1458 15.0208 93.9062 15.375C94.6667 15.7292 95.3438 16.224 95.9375 16.8594C96.5312 17.4948 97 18.2448 97.3438 19.1094C97.6875 19.9635 97.8594 20.8802 97.8594 21.8594C97.8594 22.9635 97.6198 24.0938 97.1406 25.25C96.6615 26.3958 95.901 27.5365 94.8594 28.6719L91.8438 26.7812C92.0312 26.5312 92.3802 26.1667 92.8906 25.6875C93.401 25.2083 93.849 24.724 94.2344 24.2344C94.6198 23.7344 94.9479 23.1198 95.2188 22.3906C95.4896 21.651 95.625 20.7812 95.625 19.7812ZM113.953 12.9219H103.547V15.4219C103.599 15.4219 103.641 15.4427 103.672 15.4844C103.703 15.526 103.74 15.5469 103.781 15.5469C103.76 15.5469 103.974 15.4844 104.422 15.3594C104.88 15.2344 105.401 15.125 105.984 15.0312C106.568 14.9271 107.13 14.875 107.672 14.875C108.922 14.875 109.906 15.0469 110.625 15.3906C111.344 15.7344 111.859 16.2188 112.172 16.8438C112.495 17.4688 112.688 18.1719 112.75 18.9531C112.823 19.724 112.859 20.7865 112.859 22.1406V28.3125C112.286 28.0833 111.771 27.8594 111.312 27.6406C110.854 27.4115 110.536 27.2448 110.359 27.1406C110.359 26.7969 110.297 26.5833 110.172 26.5C109.828 26.6979 109.443 26.9167 109.016 27.1562C108.589 27.3854 108.031 27.5885 107.344 27.7656C106.656 27.9427 105.839 28.0312 104.891 28.0312C103.984 28.0312 103.099 27.8646 102.234 27.5312C101.37 27.1979 100.667 26.724 100.125 26.1094C99.5938 25.4844 99.3281 24.7812 99.3281 24C99.3281 23.2708 99.6667 22.5104 100.344 21.7188C101.021 20.9167 101.927 20.2552 103.062 19.7344C104.198 19.2031 105.438 18.9375 106.781 18.9375C107.51 18.9375 108.203 19.0469 108.859 19.2656C109.516 19.474 110.016 19.7083 110.359 19.9688V18.5312C109.953 17.9896 109.547 17.6146 109.141 17.4062C108.734 17.1979 108.109 17.0938 107.266 17.0938C106.172 17.1354 105.307 17.2292 104.672 17.375C104.047 17.5104 103.37 17.7292 102.641 18.0312C101.922 18.3229 101.318 18.5521 100.828 18.7188V17.5625C100.901 17.5 101.005 17.4115 101.141 17.2969C101.276 17.1823 101.365 17.099 101.406 17.0469C101.458 16.9948 101.49 16.9635 101.5 16.9531V12.9219H98.2969V11.0469H113.953V12.9219ZM110.359 22.8125C110.359 22.3333 109.823 21.9323 108.75 21.6094C107.677 21.2865 106.917 21.125 106.469 21.125C105.333 21.125 104.297 21.3646 103.359 21.8438C102.432 22.3229 101.703 22.8802 101.172 23.5156C100.641 24.1406 100.375 24.6562 100.375 25.0625C100.521 25.5 100.844 25.8021 101.344 25.9688C101.854 26.125 102.396 26.2031 102.969 26.2031C104.031 26.2031 105.016 26.0625 105.922 25.7812C106.839 25.5 107.63 25.1562 108.297 24.75C108.964 24.3333 109.474 23.9375 109.828 23.5625C110.182 23.1875 110.359 22.9375 110.359 22.8125Z" fill="black"/>
</svg>
